<svg width="64" height="64" viewBox="0 0 64 64" fill="none" xmlns="http://www.w3.org/2000/svg">
<path d="M51.2 41.6C47.04 41.6 43.52 44.16 42.24 48H28.8C28.8 45.76 28.16 43.84 27.2 42.24L49.92 18.88C50.88 18.88 51.84 19.2 52.8 19.2C57.28 19.2 60.8 15.68 60.8 11.2C60.8 6.72001 57.28 3.20001 52.8 3.20001C48.32 3.20001 44.8 6.72001 44.8 11.2C44.8 12.16 45.12 13.44 45.44 14.4L23.04 37.44C21.12 35.84 18.56 35.2 16 35.2V21.76C19.84 20.48 22.4 16.96 22.4 12.8C22.4 7.36001 18.24 3.20001 12.8 3.20001C7.35995 3.20001 3.19995 7.36001 3.19995 12.8C3.19995 16.96 5.75995 20.48 9.59995 21.76V36.8C5.75995 39.04 3.19995 43.2 3.19995 47.68C3.19995 54.72 8.95995 60.48 16 60.48C20.8 60.48 24.96 57.92 26.88 54.08H41.92C43.2 57.6 46.72 60.48 50.88 60.48C56 60.48 60.48 56.32 60.48 50.88C60.8 45.76 56.32 41.6 51.2 41.6Z" fill="#19BCFE"/>
</svg>
