<svg id="svg" version="1.1" xmlns="http://www.w3.org/2000/svg" width="400" height="203.0976430976431"
     viewBox="0, 0, 400,203.0976430976431">
  <g id="svgg">
    <path id="path0"
          d="M19.502 58.202 L 19.502 96.902 49.568 96.902 L 79.634 96.902 79.634 92.640 L 79.634 88.378 83.951 88.323 L 88.268 88.268 88.268 58.202 L 88.268 28.136 83.951 28.081 L 79.634 28.026 79.634 23.764 L 79.634 19.502 49.568 19.502 L 19.502 19.502 19.502 58.202 M105.637 23.768 L 105.637 28.035 101.371 28.035 L 97.105 28.035 97.105 58.202 L 97.105 88.370 101.371 88.370 L 105.637 88.370 105.637 92.636 L 105.637 96.902 131.437 96.902 L 157.237 96.902 157.237 92.636 L 157.237 88.370 161.503 88.370 L 165.769 88.370 165.819 66.734 C 165.846 54.835,165.869 41.282,165.870 36.618 L 165.871 28.136 161.554 28.081 L 157.237 28.026 157.237 23.764 L 157.237 19.502 131.437 19.502 L 105.637 19.502 105.637 23.768 M174.708 58.202 L 174.708 96.902 187.506 96.902 L 200.305 96.902 200.305 71.102 L 200.305 45.302 209.040 45.302 L 217.776 45.302 217.776 71.102 L 217.776 96.902 230.574 96.902 L 243.372 96.902 243.372 62.468 L 243.372 28.035 239.106 28.035 L 234.840 28.035 234.840 23.768 L 234.840 19.502 204.774 19.502 L 174.708 19.502 174.708 58.202 M252.108 28.035 L 252.108 36.567 260.741 36.567 L 269.375 36.567 269.375 66.734 L 269.375 96.902 282.275 96.902 L 295.175 96.902 295.175 66.734 L 295.175 36.567 303.809 36.567 L 312.443 36.567 312.443 28.035 L 312.443 19.502 282.275 19.502 L 252.108 19.502 252.108 28.035 M62.521 58.253 L 62.468 71.204 53.948 71.257 C 49.263 71.286,45.362 71.240,45.280 71.155 C 45.199 71.070,45.184 65.218,45.248 58.151 L 45.365 45.302 53.969 45.302 L 62.573 45.302 62.521 58.253 M140.123 58.253 L 140.071 71.204 131.437 71.204 L 122.803 71.204 122.751 58.253 L 122.699 45.302 131.437 45.302 L 140.176 45.302 140.123 58.253 M19.502 144.947 L 19.502 183.647 32.298 183.647 L 45.093 183.647 45.147 177.501 L 45.201 171.356 62.417 171.304 L 79.634 171.252 79.634 166.991 L 79.634 162.730 83.951 162.675 L 88.268 162.621 88.268 138.751 L 88.268 114.881 83.951 114.826 L 79.634 114.771 79.634 110.509 L 79.634 106.247 49.568 106.247 L 19.502 106.247 19.502 144.947 M105.997 110.462 L 105.942 114.678 101.625 114.732 L 97.308 114.787 97.308 144.947 L 97.308 175.106 101.625 175.161 L 105.942 175.216 105.997 179.431 L 106.052 183.647 127.480 183.647 L 148.908 183.647 148.908 179.380 L 148.908 175.114 152.768 175.114 L 156.628 175.114 156.628 179.584 L 156.628 184.053 161.402 184.053 L 166.176 184.053 166.176 149.416 L 166.176 114.779 161.808 114.779 L 157.440 114.779 157.440 110.513 L 157.440 106.247 131.746 106.247 L 106.052 106.247 105.997 110.462 M174.708 144.947 L 174.708 183.647 187.506 183.647 L 200.305 183.647 200.305 157.847 L 200.305 132.047 209.040 132.047 L 217.776 132.047 217.776 157.847 L 217.776 183.647 230.574 183.647 L 243.372 183.647 243.372 149.213 L 243.372 114.779 239.106 114.779 L 234.840 114.779 234.840 110.513 L 234.840 106.247 204.774 106.247 L 174.708 106.247 174.708 144.947 M252.514 144.947 L 252.514 183.647 265.312 183.647 L 278.111 183.647 278.111 144.947 L 278.111 106.247 265.312 106.247 L 252.514 106.247 252.514 144.947 M295.582 110.509 L 295.582 114.771 291.265 114.826 L 286.948 114.881 286.879 116.100 C 286.841 116.770,286.875 130.322,286.954 146.216 L 287.099 175.114 291.340 175.114 L 295.582 175.114 295.582 179.380 L 295.582 183.647 321.178 183.647 L 346.775 183.647 346.775 170.849 L 346.775 158.052 330.574 158.000 L 314.373 157.948 314.320 144.997 L 314.268 132.047 330.510 132.047 C 339.442 132.047,346.792 131.978,346.843 131.894 C 346.894 131.811,346.885 126.006,346.825 118.994 L 346.714 106.247 321.148 106.247 L 295.582 106.247 295.582 110.509 M354.901 127.679 L 354.901 149.111 367.699 149.111 L 380.498 149.111 380.498 127.679 L 380.498 106.247 367.699 106.247 L 354.901 106.247 354.901 127.679 M62.522 138.801 L 62.468 145.556 53.885 145.609 L 45.302 145.662 45.302 138.854 L 45.302 132.047 53.939 132.047 L 62.575 132.047 62.522 138.801 M140.376 145.048 L 140.376 158.050 131.742 158.050 L 123.108 158.050 123.108 145.048 L 123.108 132.047 131.742 132.047 L 140.376 132.047 140.376 145.048 M354.901 170.848 L 354.901 183.647 367.699 183.647 L 380.498 183.647 380.498 170.848 L 380.498 158.050 367.699 158.050 L 354.901 158.050 354.901 170.848 "
          stroke="none" fill="#f2f7f7" fill-rule="evenodd"></path>
    <path id="path1"
          d="M19.393 19.552 C 19.340 19.692,19.320 37.176,19.349 58.405 L 19.401 97.004 49.568 97.004 L 79.736 97.004 79.742 92.636 L 79.749 88.268 79.687 92.585 L 79.626 96.902 49.564 96.902 L 19.502 96.902 19.502 58.202 L 19.502 19.502 49.564 19.502 L 79.626 19.502 79.687 23.769 L 79.748 28.035 79.742 23.718 L 79.736 19.401 49.613 19.349 C 25.621 19.308,19.470 19.350,19.393 19.552 M131.433 19.451 L 157.229 19.504 157.290 23.769 L 157.351 28.035 157.345 23.718 L 157.339 19.401 131.488 19.400 L 105.637 19.398 131.433 19.451 M174.599 19.553 C 174.546 19.693,174.526 37.176,174.554 58.405 L 174.606 97.004 187.506 97.004 L 200.406 97.004 200.407 71.153 L 200.409 45.302 200.356 71.102 L 200.303 96.902 187.506 96.902 L 174.708 96.902 174.708 58.203 L 174.708 19.504 204.825 19.451 L 234.942 19.399 204.818 19.349 C 180.870 19.309,174.675 19.351,174.599 19.553 M267.207 19.451 C 275.568 19.481,289.189 19.481,297.477 19.451 C 305.764 19.422,298.923 19.398,282.275 19.398 C 265.627 19.398,258.847 19.422,267.207 19.451 M234.840 27.882 C 234.840 27.966,236.760 28.035,239.106 28.035 L 243.372 28.035 243.372 62.468 L 243.372 96.902 230.575 96.902 L 217.777 96.902 217.724 71.102 L 217.672 45.302 217.673 71.153 L 217.674 97.004 230.574 97.004 L 243.474 97.004 243.474 62.468 L 243.474 27.933 239.157 27.831 C 236.782 27.776,234.840 27.798,234.840 27.882 M97.001 58.202 C 97.001 74.850,97.025 81.631,97.054 73.270 C 97.084 64.909,97.084 51.288,97.054 43.001 C 97.025 34.713,97.001 41.554,97.001 58.202 M256.526 36.719 C 258.900 36.751,262.786 36.751,265.160 36.719 C 267.534 36.686,265.592 36.660,260.843 36.660 C 256.094 36.660,254.152 36.686,256.526 36.719 M299.506 36.719 C 301.944 36.751,305.875 36.751,308.241 36.719 C 310.608 36.686,308.614 36.660,303.809 36.660 C 299.005 36.660,297.068 36.687,299.506 36.719 M165.867 66.734 C 165.867 78.690,165.892 83.551,165.922 77.536 C 165.952 71.522,165.952 61.741,165.922 55.800 C 165.892 49.858,165.867 54.779,165.867 66.734 M122.801 58.304 L 122.803 71.204 131.437 71.204 L 140.071 71.204 140.073 58.202 L 140.076 45.201 140.021 58.151 L 139.967 71.102 131.437 71.102 L 122.908 71.102 122.853 58.253 L 122.799 45.404 122.801 58.304 M45.193 67.852 L 45.201 71.204 53.733 71.207 L 62.265 71.210 53.789 71.154 L 45.312 71.098 45.248 67.799 L 45.185 64.500 45.193 67.852 M157.284 92.584 L 157.237 96.900 131.386 96.953 L 105.536 97.005 131.393 97.055 C 152.219 97.095,157.269 97.055,157.349 96.846 C 157.404 96.703,157.422 94.715,157.389 92.427 L 157.330 88.268 157.284 92.584 M275.840 97.054 C 279.451 97.085,285.302 97.085,288.842 97.054 C 292.381 97.023,289.426 96.998,282.275 96.998 C 275.124 96.998,272.229 97.023,275.840 97.054 M19.393 106.297 C 19.340 106.437,19.320 123.921,19.349 145.150 L 19.401 183.748 32.301 183.748 L 45.201 183.748 45.254 177.604 L 45.308 171.460 62.522 171.408 L 79.736 171.356 79.742 167.039 L 79.748 162.722 79.687 166.987 L 79.626 171.252 62.413 171.304 L 45.201 171.356 45.147 177.501 L 45.093 183.647 32.298 183.647 L 19.502 183.647 19.502 144.947 L 19.502 106.247 49.564 106.247 L 79.626 106.247 79.687 110.513 L 79.748 114.779 79.742 110.462 L 79.736 106.145 49.613 106.094 C 25.621 106.053,19.470 106.094,19.393 106.297 M105.932 106.303 C 105.877 106.446,105.859 108.389,105.891 110.620 L 105.951 114.678 105.997 110.462 L 106.044 106.247 131.738 106.247 L 157.432 106.247 157.493 110.513 L 157.554 114.779 157.548 110.462 L 157.542 106.145 131.787 106.094 C 110.989 106.052,106.012 106.092,105.932 106.303 M174.599 106.298 C 174.546 106.437,174.526 123.921,174.554 145.150 L 174.606 183.748 187.506 183.748 L 200.406 183.748 200.407 157.897 L 200.409 132.047 200.356 157.847 L 200.303 183.647 187.506 183.647 L 174.708 183.647 174.708 144.947 L 174.708 106.248 204.825 106.196 L 234.942 106.144 204.818 106.094 C 180.870 106.054,174.675 106.096,174.599 106.298 M252.405 106.296 C 252.352 106.437,252.332 123.921,252.360 145.150 L 252.412 183.748 265.312 183.748 L 278.212 183.748 278.212 144.947 L 278.212 106.145 265.357 106.093 C 255.181 106.052,252.482 106.094,252.405 106.296 M295.470 106.302 C 295.415 106.445,295.396 108.434,295.429 110.722 L 295.489 114.881 295.535 110.564 L 295.582 106.247 321.176 106.247 L 346.771 106.247 346.827 115.947 L 346.882 125.648 346.880 115.896 L 346.877 106.145 321.223 106.094 C 300.521 106.052,295.550 106.092,295.470 106.302 M354.835 106.178 C 354.759 106.253,354.698 115.990,354.698 127.816 L 354.698 149.317 367.649 149.265 L 380.599 149.213 380.599 127.679 L 380.599 106.145 367.785 106.093 C 360.738 106.064,354.910 106.102,354.835 106.178 M278.111 144.947 L 278.111 183.647 265.312 183.647 L 252.514 183.647 252.514 144.947 L 252.514 106.247 265.312 106.247 L 278.111 106.247 278.111 144.947 M380.498 127.679 L 380.498 149.111 367.699 149.111 L 354.901 149.111 354.901 127.679 L 354.901 106.247 367.699 106.247 L 380.498 106.247 380.498 127.679 M234.840 114.627 C 234.840 114.711,236.760 114.779,239.106 114.779 L 243.372 114.779 243.372 149.213 L 243.372 183.647 230.575 183.647 L 217.777 183.647 217.724 157.847 L 217.672 132.047 217.673 157.897 L 217.674 183.748 230.574 183.748 L 243.474 183.748 243.474 149.213 L 243.474 114.678 239.157 114.576 C 236.782 114.520,234.840 114.543,234.840 114.627 M314.371 145.048 L 314.373 157.948 330.574 158.000 L 346.775 158.052 346.775 170.849 L 346.775 183.647 321.182 183.647 L 295.590 183.647 295.529 179.380 L 295.468 175.114 295.474 179.431 L 295.480 183.748 321.178 183.748 L 346.877 183.748 346.929 170.797 L 346.981 157.847 330.729 157.847 L 314.477 157.847 314.423 144.997 L 314.368 132.148 314.371 145.048 M49.518 145.607 C 51.892 145.639,55.777 145.639,58.151 145.607 C 60.526 145.574,58.583 145.548,53.834 145.548 C 49.086 145.548,47.143 145.574,49.518 145.607 M286.942 160.691 C 286.942 168.680,286.968 171.948,286.998 167.953 C 287.029 163.959,287.029 157.423,286.998 153.428 C 286.968 149.434,286.942 152.702,286.942 160.691 M127.439 157.999 C 129.877 158.031,133.807 158.031,136.174 157.999 C 138.541 157.966,136.546 157.940,131.742 157.940 C 126.938 157.940,125.001 157.966,127.439 157.999 M354.747 170.796 L 354.799 183.748 367.699 183.748 L 380.599 183.748 380.599 170.848 L 380.599 157.948 367.647 157.896 L 354.695 157.844 354.747 170.796 M380.498 170.848 L 380.498 183.647 367.699 183.647 L 354.901 183.647 354.901 170.848 L 354.901 158.050 367.699 158.050 L 380.498 158.050 380.498 170.848 M156.511 179.584 C 156.511 182.098,156.541 183.126,156.576 181.869 C 156.612 180.612,156.612 178.555,156.576 177.298 C 156.541 176.041,156.511 177.070,156.511 179.584 M105.936 179.482 L 105.942 183.748 127.476 183.749 L 149.010 183.751 127.531 183.698 L 106.052 183.645 105.991 179.430 L 105.929 175.216 105.936 179.482 "
          stroke="none" fill="#848484" fill-rule="evenodd"></path>
    <path id="path2"
          d="M9.548 4.774 L 9.548 9.548 4.774 9.548 L 0.000 9.548 0.000 101.574 L 0.000 193.601 4.774 193.601 L 9.548 193.601 9.548 198.375 L 9.548 203.149 200.000 203.149 L 390.452 203.149 390.452 198.375 L 390.452 193.601 395.226 193.601 L 400.000 193.601 400.000 144.947 L 400.000 96.293 395.226 96.293 L 390.452 96.293 390.452 91.417 L 390.452 86.541 361.199 86.541 L 331.945 86.541 331.945 48.045 L 331.945 9.548 327.273 9.548 L 322.600 9.548 322.600 4.774 L 322.600 0.000 166.074 0.000 L 9.548 0.000 9.548 4.774 M79.837 23.667 L 79.837 28.035 84.104 28.035 L 88.370 28.035 88.370 58.202 L 88.370 88.370 84.104 88.370 L 79.837 88.370 79.837 92.737 L 79.837 97.105 49.568 97.105 L 19.299 97.105 19.299 58.202 L 19.299 19.299 49.568 19.299 L 79.837 19.299 79.837 23.667 M157.394 23.718 L 157.448 28.035 161.710 28.035 L 165.973 28.035 165.973 58.202 L 165.973 88.370 161.710 88.370 L 157.448 88.370 157.394 92.687 L 157.339 97.004 131.437 97.004 L 105.536 97.004 105.481 92.687 L 105.426 88.370 101.164 88.370 L 96.902 88.370 96.902 58.202 L 96.902 28.035 101.168 28.035 L 105.434 28.035 105.434 23.802 C 105.434 21.475,105.496 19.509,105.570 19.434 C 105.645 19.359,117.324 19.321,131.523 19.349 L 157.339 19.401 157.394 23.718 M234.997 23.616 L 235.051 27.831 239.313 27.831 L 243.575 27.831 243.575 62.468 L 243.575 97.105 230.574 97.105 L 217.572 97.105 217.572 71.204 L 217.572 45.302 209.040 45.302 L 200.508 45.302 200.508 71.204 L 200.508 97.105 187.506 97.105 L 174.505 97.105 174.505 58.201 L 174.505 19.298 204.723 19.349 L 234.942 19.401 234.997 23.616 M312.443 28.035 L 312.443 36.770 303.911 36.770 L 295.380 36.770 295.328 66.887 L 295.277 97.004 282.326 97.056 L 269.375 97.108 269.375 66.939 L 269.375 36.770 260.741 36.770 L 252.108 36.770 252.108 28.035 L 252.108 19.299 282.275 19.299 L 312.443 19.299 312.443 28.035 M45.302 58.202 L 45.302 71.102 53.834 71.102 L 62.367 71.102 62.367 58.202 L 62.367 45.302 53.834 45.302 L 45.302 45.302 45.302 58.202 M122.905 58.202 L 122.905 71.102 131.437 71.102 L 139.970 71.102 139.970 58.202 L 139.970 45.302 131.437 45.302 L 122.905 45.302 122.905 58.202 M79.791 110.462 L 79.846 114.779 84.108 114.779 L 88.370 114.779 88.370 138.751 L 88.370 162.722 84.104 162.722 L 79.837 162.722 79.837 167.090 L 79.837 171.458 62.570 171.458 L 45.302 171.458 45.302 177.654 L 45.302 183.850 32.301 183.850 L 19.299 183.850 19.299 145.082 C 19.299 123.760,19.360 106.253,19.435 106.178 C 19.510 106.104,33.108 106.065,49.654 106.094 L 79.736 106.145 79.791 110.462 M157.643 110.407 L 157.643 114.771 161.960 114.826 L 166.277 114.881 166.277 149.416 L 166.277 183.951 161.351 184.006 L 156.425 184.060 156.425 179.587 L 156.425 175.114 152.772 175.114 L 149.119 175.114 149.064 179.431 L 149.010 183.748 127.425 183.800 L 105.841 183.852 105.841 179.483 L 105.841 175.114 101.473 175.114 L 97.105 175.114 97.105 144.947 L 97.105 114.779 101.473 114.779 L 105.841 114.779 105.841 110.411 L 105.841 106.044 131.742 106.044 L 157.643 106.044 157.643 110.407 M234.997 110.361 L 235.051 114.576 239.313 114.576 L 243.575 114.576 243.575 149.213 L 243.575 183.850 230.574 183.850 L 217.572 183.850 217.572 157.948 L 217.572 132.047 209.040 132.047 L 200.508 132.047 200.508 157.948 L 200.508 183.850 187.506 183.850 L 174.505 183.850 174.505 144.946 L 174.505 106.042 204.723 106.094 L 234.942 106.145 234.997 110.361 M278.314 144.947 L 278.314 183.850 265.312 183.850 L 252.311 183.850 252.311 144.947 L 252.311 106.044 265.312 106.044 L 278.314 106.044 278.314 144.947 M346.978 119.045 L 346.978 132.047 330.726 132.047 L 314.474 132.047 314.474 144.947 L 314.474 157.847 330.726 157.847 L 346.978 157.847 346.978 170.848 L 346.978 183.850 321.178 183.850 L 295.378 183.850 295.378 179.482 L 295.378 175.114 291.112 175.114 L 286.846 175.114 286.846 144.947 L 286.846 114.779 291.112 114.779 L 295.378 114.779 295.378 110.547 C 295.378 108.219,295.439 106.254,295.514 106.179 C 295.588 106.105,307.198 106.044,321.314 106.044 L 346.978 106.044 346.978 119.045 M380.701 127.679 L 380.701 149.314 367.699 149.314 L 354.698 149.314 354.698 127.679 L 354.698 106.044 367.699 106.044 L 380.701 106.044 380.701 127.679 M45.302 138.751 L 45.302 145.455 53.834 145.455 L 62.367 145.455 62.367 138.751 L 62.367 132.047 53.834 132.047 L 45.302 132.047 45.302 138.751 M123.108 144.947 L 123.108 157.847 131.640 157.847 L 140.173 157.847 140.173 144.947 L 140.173 132.047 131.640 132.047 L 123.108 132.047 123.108 144.947 M380.701 170.848 L 380.701 183.850 367.699 183.850 L 354.698 183.850 354.698 170.848 L 354.698 157.847 367.699 157.847 L 380.701 157.847 380.701 170.848 "
          stroke="none" fill="#040404" fill-rule="evenodd"></path>
    <path id="path3"
          d="M234.926 23.565 C 234.926 25.856,234.955 26.793,234.992 25.648 C 235.028 24.502,235.028 22.628,234.992 21.483 C 234.955 20.338,234.926 21.275,234.926 23.565 M295.274 66.836 C 295.274 83.428,295.298 90.216,295.328 81.920 C 295.357 73.624,295.357 60.048,295.328 51.752 C 295.298 43.456,295.274 50.244,295.274 66.836 M62.462 58.202 C 62.462 65.353,62.488 68.249,62.519 64.637 C 62.550 61.026,62.550 55.175,62.519 51.636 C 62.488 48.096,62.462 51.051,62.462 58.202 M234.926 110.310 C 234.926 112.600,234.955 113.537,234.992 112.392 C 235.028 111.247,235.028 109.373,234.992 108.228 C 234.955 107.082,234.926 108.019,234.926 110.310 M97.204 144.947 C 97.204 161.595,97.228 168.375,97.257 160.015 C 97.287 151.654,97.287 138.033,97.257 129.745 C 97.228 121.458,97.204 128.299,97.204 144.947 M62.458 138.852 C 62.458 142.539,62.485 144.076,62.519 142.268 C 62.552 140.459,62.552 137.443,62.519 135.564 C 62.485 133.685,62.458 135.165,62.458 138.852 M148.994 179.482 C 148.994 181.828,149.024 182.760,149.060 181.553 C 149.096 180.346,149.096 178.426,149.059 177.287 C 149.023 176.148,148.994 177.136,148.994 179.482 "
          stroke="none" fill="#408480" fill-rule="evenodd"></path>
    <path id="path4"
          d="M105.520 23.667 C 105.520 26.013,105.550 26.945,105.586 25.738 C 105.622 24.531,105.622 22.611,105.586 21.472 C 105.549 20.333,105.520 21.320,105.520 23.667 M105.520 92.737 C 105.520 95.084,105.550 96.016,105.586 94.809 C 105.622 93.601,105.622 91.682,105.586 90.543 C 105.549 89.403,105.520 90.391,105.520 92.737 M166.275 149.416 C 166.275 168.410,166.299 176.211,166.328 166.750 C 166.357 157.290,166.357 141.749,166.328 132.215 C 166.299 122.681,166.275 130.422,166.275 149.416 M140.268 145.048 C 140.268 152.143,140.294 155.046,140.325 151.498 C 140.356 147.951,140.356 142.146,140.325 138.598 C 140.294 135.051,140.268 137.953,140.268 145.048 "
          stroke="none" fill="#400484" fill-rule="evenodd"></path>
  </g>
</svg>
