<svg width="60" height="94" viewBox="0 0 60 94" fill="none" xmlns="http://www.w3.org/2000/svg">
<path d="M45 62.6666C53.2843 62.6666 60 55.6524 60 47C60 38.3475 53.2843 31.3333 45 31.3333C36.7157 31.3333 30 38.3475 30 47C30 55.6524 36.7157 62.6666 45 62.6666Z" fill="#19BCFE"/>
<path fill-rule="evenodd" clip-rule="evenodd" d="M15 94C18.9782 94 22.7936 92.3494 25.6066 89.4113C28.4196 86.4732 30 82.4884 30 78.3333V62.6666H15C11.0218 62.6666 7.20644 64.3172 4.3934 67.2553C1.58035 70.1934 0 74.1782 0 78.3333C0 82.4884 1.58035 86.4732 4.3934 89.4113C7.20644 92.3494 11.0218 94 15 94Z" fill="#09CF83"/>
<path fill-rule="evenodd" clip-rule="evenodd" d="M15 62.6666H30V31.3333H15C11.0218 31.3333 7.20644 32.9839 4.3934 35.922C1.58035 38.86 0 42.8449 0 47C0 51.155 1.58035 55.1399 4.3934 58.078C7.20644 61.0161 11.0218 62.6666 15 62.6666Z" fill="#A259FF"/>
<path fill-rule="evenodd" clip-rule="evenodd" d="M15 31.3333H30V0H15C11.0218 0 7.20644 1.65059 4.3934 4.58866C1.58035 7.52673 0 11.5116 0 15.6667C0 19.8217 1.58035 23.8066 4.3934 26.7447C7.20644 29.6827 11.0218 31.3333 15 31.3333Z" fill="#F24E1E"/>
<path fill-rule="evenodd" clip-rule="evenodd" d="M45 31.3333H30V0H45C48.9782 0 52.7936 1.65059 55.6066 4.58866C58.4196 7.52673 60 11.5116 60 15.6667C60 19.8217 58.4196 23.8066 55.6066 26.7447C52.7936 29.6827 48.9782 31.3333 45 31.3333Z" fill="#FF7262"/>
</svg>
