<svg width="16" height="16" viewBox="0 0 16 16" fill="none" xmlns="http://www.w3.org/2000/svg">
<path d="M2.95101 13.6005L1.82751 1H14.1725L13.0475 13.5985L7.99251 15L2.95101 13.6005Z" fill="#E44F26"/>
<path d="M8 13.929L12.085 12.7965L13.046 2.03052H8V13.929Z" fill="#F1662A"/>
<path d="M8 6.70344H5.955L5.814 5.12094H8V3.57544H4.125L4.162 3.99044L4.5415 8.24894H8V6.70344V6.70344Z" fill="#EBEBEB"/>
<path d="M7.99997 10.717L7.99297 10.719L6.27197 10.2545L6.16197 9.02197H4.61047L4.82697 11.448L7.99297 12.327L7.99997 12.325V10.717Z" fill="#EBEBEB"/>
<path d="M7.99451 6.70349V8.24899H9.89751L9.71851 10.2535L7.99451 10.7185V12.3265L11.163 11.448L11.186 11.187L11.549 7.11849L11.587 6.70349H7.99451V6.70349Z" fill="white"/>
<path d="M7.99451 3.57544V5.12094H11.7275L11.7585 4.77394L11.829 3.99044L11.866 3.57544H7.99451V3.57544Z" fill="white"/>
</svg>
