<svg width="83" height="82" viewBox="0 0 83 82" fill="none" xmlns="http://www.w3.org/2000/svg">
<path d="M0 0H83V82H0V0Z" fill="#F7DF1E"/>
<path d="M21.8238 68.5251L28.1753 64.7275C29.4008 66.8739 30.5155 68.69 33.1893 68.69C35.7522 68.69 37.3685 67.6996 37.3685 63.8469V37.646H45.1682V63.9558C45.1682 71.937 40.4327 75.57 33.5236 75.57C27.284 75.57 23.6621 72.3775 21.8235 68.5244" fill="black"/>
<path d="M49.4048 67.6993L55.7556 64.0667C57.4276 66.764 59.6005 68.7455 63.4444 68.7455C66.6766 68.7455 68.7373 67.149 68.7373 64.9472C68.7373 62.3053 66.6201 61.3693 63.0544 59.8286L61.1049 59.0022C55.4774 56.6361 51.7447 53.6636 51.7447 47.3886C51.7447 41.6089 56.2017 37.2053 63.1662 37.2053C68.1248 37.2053 71.6906 38.9119 74.2532 43.3703L68.18 47.2237C66.8426 44.8569 65.3946 43.9213 63.1659 43.9213C60.8815 43.9213 59.4329 45.3524 59.4329 47.2237C59.4329 49.5354 60.8815 50.4716 64.2242 51.9028L66.174 52.7282C72.8043 55.5358 76.537 58.3978 76.537 64.8373C76.537 71.7734 71.0214 75.571 63.6114 75.571C56.3687 75.571 51.6886 72.1584 49.4044 67.6997" fill="black"/>
</svg>
