<svg width="92" height="102" viewBox="0 0 92 102" fill="none" xmlns="http://www.w3.org/2000/svg">
<path d="M45.9996 101.811C44.5713 101.811 43.2382 101.437 42.0004 100.782L29.3353 93.3928C27.4308 92.364 28.383 91.9899 28.9544 91.8028C31.5253 90.9611 32.0014 90.774 34.6676 89.2772C34.9537 89.0901 35.3345 89.1837 35.6198 89.3707L45.3331 95.0764C45.714 95.2634 46.1901 95.2634 46.4758 95.0764L84.4707 73.4704C84.8516 73.2833 85.0421 72.9092 85.0421 72.4415V29.3224C85.0421 28.8547 84.8516 28.4806 84.4707 28.2935L46.4758 6.78071C46.0949 6.59365 45.6188 6.59365 45.3331 6.78071L7.33812 28.2939C6.95724 28.4809 6.7668 28.9486 6.7668 29.3227V72.4415C6.7668 72.8157 6.95724 73.2833 7.33812 73.4704L17.7179 79.3627C23.3363 82.1686 26.8591 78.8951 26.8591 75.6215V33.0635C26.8591 32.5024 27.3356 31.9412 28.0022 31.9412H32.8588C33.4301 31.9412 34.0014 32.4088 34.0014 33.0635V75.6212C34.0014 83.0104 29.9066 87.3127 22.7646 87.3127C20.5746 87.3127 18.8606 87.3127 14.0043 84.9745L4.00539 79.3627C1.52964 77.9594 0.00610352 75.3406 0.00610352 72.5347V29.4162C0.00610352 26.6104 1.52964 23.9915 4.00539 22.5882L42.0004 0.982242C44.3809 -0.32717 47.6184 -0.32717 49.9989 0.982242L87.9939 22.5882C90.4697 23.9912 91.9932 26.61 91.9932 29.4162V72.5351C91.9932 75.341 90.4697 77.9598 87.9939 79.3627L49.9989 100.969C48.7611 101.531 47.3327 101.811 45.9996 101.811V101.811ZM57.7122 72.1606C41.0478 72.1606 37.6198 64.6782 37.6198 58.3179C37.6198 57.7567 38.0959 57.1955 38.7625 57.1955H43.714C44.2853 57.1955 44.7618 57.5697 44.7618 58.1308C45.5235 63.0879 47.7136 65.52 57.8074 65.52C65.8063 65.52 69.2346 63.7429 69.2346 59.5341C69.2346 57.102 68.2824 55.3249 55.8078 54.1087C45.4283 53.0799 38.9529 50.8352 38.9529 42.6981C38.9529 35.1215 45.428 30.6321 56.2839 30.6321C68.4725 30.6321 74.4718 34.7474 75.2336 43.7266C75.2336 44.0072 75.1384 44.2878 74.9479 44.5684C74.7575 44.7554 74.4718 44.9425 74.1861 44.9425H69.2346C68.7582 44.9425 68.2824 44.5684 68.1869 44.1007C67.0442 38.9566 64.0924 37.2731 56.2839 37.2731C47.5235 37.2731 46.4758 40.266 46.4758 42.5107C46.4758 45.2234 47.7136 46.0648 59.5214 47.5613C71.2343 49.0578 76.7571 51.2093 76.7571 59.2532C76.6619 67.4841 69.806 72.1606 57.7122 72.1606Z" fill="#539E43"/>
</svg>
