<svg width="116" height="91" viewBox="0 0 116 91" fill="none" xmlns="http://www.w3.org/2000/svg">
<path d="M95.3746 29.465C94.1402 29.0919 92.8952 28.7463 91.6409 28.4284C91.8516 27.6701 92.0456 26.9209 92.2177 26.185C95.0443 14.0991 93.1965 4.36253 86.8849 1.15677C80.8335 -1.91647 70.9368 1.28808 60.9418 8.95004C59.9568 9.70652 58.9936 10.4848 58.0532 11.2841C57.4236 10.7526 56.783 10.2314 56.1315 9.72075C45.6562 1.52836 35.1564 -1.92446 28.8517 1.29048C22.8057 4.3733 21.0154 13.5264 23.5601 24.9804C23.8133 26.1148 24.0992 27.2434 24.4174 28.365C22.9312 28.737 21.4971 29.1329 20.1245 29.5544C7.8431 33.3261 0 39.2367 0 45.3676C0 51.6997 8.41993 58.0509 21.2116 61.9021C22.2486 62.213 23.2943 62.5011 24.3476 62.7662C24.0056 63.9742 23.7018 65.1904 23.4369 66.4134C21.0109 77.6686 22.9054 86.6054 28.9351 89.6686C35.1628 92.8321 45.6154 89.5808 55.793 81.7441C56.6183 81.1069 57.4254 80.4518 58.2136 79.7792C59.232 80.6447 60.2776 81.485 61.3492 82.2992C71.2082 89.7716 80.945 92.789 86.9688 89.7173C93.1906 86.5447 95.2129 76.9442 92.5875 65.2639C92.3807 64.3488 92.1487 63.4383 91.8919 62.5331C92.626 62.3415 93.3465 62.1443 94.0488 61.9392C107.347 58.0585 115.999 51.7843 115.999 45.3676C115.999 39.2143 107.903 33.2638 95.3746 29.465ZM92.4905 57.7963C91.8561 57.9811 91.2055 58.1595 90.5421 58.3331C89.074 54.2393 87.0929 49.8865 84.6683 45.3888C86.9819 40.9984 88.8868 36.7011 90.3137 32.634C91.5004 32.9365 92.6518 33.2554 93.762 33.5919C104.496 36.8471 111.044 41.6594 111.044 45.3676C111.044 49.3173 103.973 54.4449 92.4905 57.7963ZM87.7264 66.1116C88.8873 71.2763 89.0527 75.946 88.2837 79.5968C87.5932 82.8772 86.2039 85.064 84.4856 85.94C80.8303 87.8039 73.0126 85.3813 64.5813 78.9905C63.5846 78.2335 62.612 77.4523 61.6646 76.6477C64.9334 73.499 68.2 69.8386 71.3881 65.7732C76.996 65.3349 82.2939 64.6181 87.0984 63.6399C87.3349 64.4808 87.5451 65.3054 87.7264 66.1116ZM39.5467 85.618C35.9752 86.7287 33.1305 86.7606 31.4109 85.8874C27.752 84.0286 26.2308 76.8528 28.3057 67.2276C28.5523 66.0902 28.8347 64.959 29.1526 63.8354C33.904 64.7614 39.1634 65.4271 44.7844 65.8286C47.9943 69.8067 51.3551 73.4631 54.7422 76.6648C54.0224 77.2783 53.2856 77.8761 52.5323 78.4577C48.0315 81.9229 43.5215 84.3815 39.5467 85.618ZM22.8147 57.7719C17.1584 56.0689 12.4872 53.8558 9.28539 51.4407C6.40806 49.2706 4.9558 47.1158 4.9558 45.3676C4.9558 41.647 11.2529 36.9014 21.7558 33.6761C23.0304 33.285 24.3644 32.9158 25.7487 32.5693C27.2005 36.7282 29.1045 41.0766 31.4023 45.4738C29.0746 49.936 27.1434 54.3539 25.6776 58.5618C24.7161 58.3192 23.7615 58.0559 22.8147 57.7719ZM28.4235 24.1419C26.2435 14.3286 27.6912 6.92609 31.3348 5.06818C35.2153 3.08932 43.7966 5.91072 52.8414 12.9848C53.4312 13.4471 54.0114 13.9188 54.5818 14.3997C51.2115 17.5875 47.8815 21.2167 44.7001 25.1712C39.2445 25.6166 34.0223 26.3318 29.221 27.2901C28.9252 26.2469 28.6593 25.1973 28.4235 24.1423V24.1419ZM78.4605 35.0251C77.3264 33.2997 76.1503 31.596 74.9329 29.9152C78.634 30.3275 82.1802 30.8747 85.5102 31.5436C84.5106 34.3662 83.2645 37.3169 81.7977 40.3423C80.7256 38.5505 79.613 36.7778 78.4605 35.0251ZM58.0555 17.5192C60.341 19.7004 62.6302 22.1355 64.8818 24.7777C60.3143 24.5877 55.7392 24.5869 51.1716 24.7753C53.4254 22.1574 55.7341 19.7256 58.0555 17.5192ZM37.5195 35.0551C36.3814 36.7936 35.2895 38.5553 34.2448 40.3387C32.802 37.3241 31.5673 34.3598 30.5591 31.4973C33.8687 30.8451 37.398 30.3119 41.0756 29.9072C39.8446 31.5983 38.6589 33.3146 37.5195 35.0547V35.0551ZM41.1812 61.1386C37.3817 60.765 33.7993 60.2593 30.4906 59.6247C31.5147 56.7111 32.7766 53.6837 34.2506 50.6045C35.2995 52.3892 36.396 54.152 37.539 55.8913C38.7144 57.6794 39.9314 59.4307 41.1812 61.1386ZM58.1923 73.5233C55.8433 71.2914 53.5007 68.8221 51.2128 66.1663C53.4341 66.2429 55.6983 66.282 57.9997 66.282C60.3641 66.282 62.7013 66.2354 65.0018 66.1451C62.743 68.8488 60.4624 71.3218 58.1923 73.5233ZM81.8444 50.4472C83.395 53.5604 84.7018 56.5718 85.7394 59.4355C82.3764 60.1116 78.745 60.656 74.9189 61.0603C76.1449 59.3483 77.3322 57.615 78.48 55.8614C79.6469 54.0789 80.7687 52.2737 81.8444 50.4472ZM74.1875 53.6805C72.4304 56.3692 70.5745 59.0068 68.6227 61.5892C65.0873 61.8097 61.544 61.9193 57.9997 61.9176C54.3897 61.9176 50.8784 61.8187 47.4972 61.6255C45.4945 59.0491 43.6032 56.4069 41.8273 53.7045H41.8278C40.0602 51.0164 38.4092 48.2702 36.8783 45.4718C38.4053 42.6727 40.0513 39.9252 41.8128 37.2351L41.8124 37.2355C43.5732 34.5447 45.4494 31.9138 47.437 29.3484C50.8866 29.1185 54.4241 28.9988 57.9993 28.9988H57.9997C61.5912 28.9988 65.1332 29.1197 68.5819 29.3512C70.5494 31.9127 72.4137 34.5346 74.1712 37.2119C75.9386 39.8961 77.6064 42.6302 79.1719 45.4099C77.6224 48.218 75.9599 50.9767 74.1875 53.6805ZM84.41 4.93806C88.2942 6.91132 89.8049 14.8686 87.3643 25.3037C87.2085 25.9694 87.0336 26.6475 86.8432 27.3352C82.0302 26.3566 76.8043 25.629 71.3329 25.1768C68.1456 21.1788 64.8428 17.544 61.5273 14.3973C62.3962 13.6595 63.2858 12.9409 64.1953 12.242C72.7593 5.67764 80.7633 3.08573 84.41 4.93806ZM57.9997 36.2437C63.7204 36.2437 68.3581 40.3287 68.3581 45.3676C68.3581 50.4065 63.7204 54.4916 57.9997 54.4916C52.279 54.4916 47.6413 50.4065 47.6413 45.3676C47.6413 40.3287 52.279 36.2437 57.9997 36.2437Z" fill="#00D8FF"/>
</svg>
