<svg width="115" height="99" viewBox="0 0 115 99" fill="none" xmlns="http://www.w3.org/2000/svg">
<path d="M114.546 59.2823C113.856 57.5389 112.05 56.3247 109.715 56.0333C108.613 55.896 107.352 55.9545 105.86 56.2114C103.258 56.6595 101.328 56.8302 99.9196 56.8632C105.236 49.3688 109.559 40.8225 112.048 32.7777C116.072 19.7693 113.922 13.8432 111.409 11.1627C104.758 4.06767 95.0553 0.256167 83.3495 0.139542C77.105 0.0757924 71.6231 1.10517 68.7633 1.84542C66.1008 1.45317 63.2379 1.23417 60.234 1.19367C54.603 1.11867 49.6277 2.14354 45.3765 4.24992C43.023 3.58542 39.2456 2.64867 34.8835 2.05092C24.624 0.644667 16.3551 1.74042 10.3068 5.30779C2.98297 9.62704 -0.41216 17.1315 0.215753 27.6128C0.415176 30.9405 2.64476 41.0655 6.15532 50.6678C8.17291 56.187 10.3243 60.7703 12.5499 64.2915C15.7061 69.2847 19.0832 72.225 22.8745 73.2811C24.9994 73.872 28.8603 74.286 32.9211 71.4623C33.4358 71.9828 34.1226 72.4999 35.0339 72.9803C36.1914 73.5897 37.6067 74.0877 39.0201 74.3828C44.114 75.4459 48.8853 75.18 52.9559 73.6898C52.9811 74.2943 53.0004 74.8718 53.0166 75.3706C53.0435 76.1794 53.0705 76.9725 53.1059 77.7143C53.3471 82.7296 53.7559 86.6292 54.9668 89.3577C55.0333 89.5077 55.1226 89.7364 55.217 89.979C55.8211 91.5233 56.8312 94.1086 59.4012 96.1332C62.0625 98.2306 65.2815 98.8737 68.2298 98.8737C69.7084 98.8737 71.1191 98.7117 72.3565 98.4904C76.7672 97.701 81.7766 96.4988 85.4003 92.1908C88.8265 88.1183 90.4919 81.9844 90.7933 72.3195C90.8324 72.0462 90.8683 71.7852 90.9029 71.5366L90.9747 71.0258L91.7819 71.085L91.9898 71.0967C96.4822 71.2677 101.975 70.4723 105.349 69.1639C108.015 68.1312 116.557 64.3658 114.546 59.2823Z" fill="black"/>
<path d="M106.864 60.2708C93.5066 62.5714 92.5881 58.7955 92.5881 58.7955C106.691 41.3231 112.587 19.1445 107.5 13.7164C93.6194 -1.09051 69.592 5.91225 69.1909 6.09375L69.062 6.11325C66.4228 5.65575 63.4697 5.3835 60.15 5.33812C54.1062 5.25562 49.5213 6.66112 46.0422 8.86387C46.0422 8.86387 3.1797 -5.87888 5.17348 27.4054C5.59748 34.4861 17.3293 80.9828 31.3221 66.9386C36.4366 61.803 41.3786 57.4609 41.3786 57.4609C43.8328 58.8221 46.7711 59.5166 49.8514 59.2673L50.0908 59.0978C50.0162 59.7353 50.0504 60.3589 50.1865 61.0973C46.5816 64.4599 47.6411 65.0501 40.435 66.2888C33.143 67.5435 37.4266 69.777 40.2234 70.3613C43.6141 71.0689 51.458 72.0716 56.758 65.877L56.5469 66.5839C57.959 67.5285 58.9508 72.7275 58.7846 77.4409C58.6184 82.1539 58.5074 85.3898 59.62 87.9173C60.7334 90.4448 61.8424 96.1316 71.3159 94.437C79.2313 93.0206 83.3334 89.3505 83.9042 83.2283C84.3089 78.876 85.2256 79.5195 85.2831 75.6281L86.0184 73.7861C86.8659 67.8863 86.1531 65.9828 91.0296 66.8681L92.2153 66.9551C95.804 67.0913 100.502 66.4729 103.259 65.403C109.196 63.1028 112.718 59.2616 106.863 60.2708H106.864Z" fill="#336791"/>
<path d="M48.5511 30.5719C47.3474 30.432 46.2573 30.5614 45.7058 30.9101C45.3959 31.1063 45.2997 31.3335 45.2737 31.4899C45.2045 31.9043 45.5522 32.3625 45.766 32.5988C46.3705 33.2678 47.2535 33.7275 48.1276 33.8288C48.2543 33.8438 48.3805 33.8505 48.5058 33.8505C49.9633 33.8505 51.2887 32.9029 51.4055 32.2035C51.5515 31.3275 50.0284 30.7436 48.5511 30.5723" fill="white"/>
<path d="M88.4285 30.5996C88.3135 29.913 86.8502 29.7172 85.4614 29.8785C84.0744 30.0397 82.7297 30.5625 82.842 31.2506C82.9318 31.7857 84.0893 32.6992 85.4592 32.6992C85.5751 32.6992 85.6918 32.6929 85.8095 32.679C86.724 32.5732 87.395 32.0884 87.7139 31.809C88.199 31.383 88.4802 30.9082 88.4285 30.5996Z" fill="white"/>
<path d="M111.309 60.0094C110.8 58.7235 109.16 58.3099 106.437 58.7794C98.3498 60.1729 95.4537 59.2076 94.5028 58.623C100.789 50.628 105.96 40.9635 108.749 31.9466C110.071 27.6754 110.801 23.7086 110.86 20.4754C110.926 16.9268 110.202 14.319 108.709 12.726C102.69 6.30415 93.8551 2.8594 83.1609 2.7649C75.8087 2.6959 69.597 4.26677 68.3928 4.70852C65.8569 4.18202 63.0924 3.85877 60.0826 3.81752C54.5634 3.7429 49.7926 4.84615 45.8427 7.09502C44.127 6.56177 39.693 5.2909 34.2704 4.56152C24.8957 3.30152 17.4461 4.25627 12.1299 7.40065C5.78657 11.1529 2.85811 17.8601 3.42538 27.3356C3.61627 30.5235 5.79196 40.3305 9.22527 49.7224C13.7446 62.0839 18.6574 69.0818 23.8263 70.5214C24.4313 70.6898 25.1288 70.8075 25.8982 70.8075C27.7837 70.8075 30.0955 70.098 32.5007 67.6838C35.4344 64.7455 38.469 61.8785 41.6009 59.0865C43.6329 59.997 45.8652 60.5055 48.1482 60.5565C48.1527 60.6064 48.1585 60.6563 48.1639 60.7058C47.7709 61.097 47.3861 61.494 47.0096 61.8964C45.4277 63.573 45.0985 63.9221 40.0065 64.7974C38.558 65.0471 34.711 65.709 34.6544 67.9605C34.5933 70.4205 39.202 71.4536 39.7271 71.5631C41.5569 71.9456 43.3198 72.1343 45.001 72.1343C49.0896 72.1343 52.6878 71.0123 55.5632 68.8414C55.4748 77.6111 55.9127 86.2526 57.1739 88.8855C58.2069 91.041 60.7303 96.3086 68.7009 96.3083C69.8705 96.3083 71.1578 96.1946 72.5739 95.9411C80.8927 94.4524 84.5052 91.3826 85.9025 84.615C86.6503 80.9981 87.9335 72.3615 88.5372 67.7288C89.811 68.0606 91.4508 68.2125 93.2236 68.2121C96.921 68.2121 101.188 67.5563 103.863 66.5194C106.869 65.3539 112.293 62.4941 111.309 60.0094ZM91.4989 28.7044C91.4715 30.072 91.246 31.3136 91.0071 32.6096C90.7497 34.0035 90.4838 35.4446 90.4169 37.194C90.3509 38.8965 90.6055 40.6665 90.8517 42.3784C91.3493 45.8359 91.86 49.3954 89.8833 52.9076C89.5549 52.4219 89.2625 51.9198 89.0075 51.4043C88.7618 50.907 88.2282 50.1083 87.4893 49.0028C84.6152 44.6993 77.8847 34.6215 81.3301 30.5093C82.3564 29.2853 84.9611 28.0268 91.4989 28.7044ZM83.5741 5.53427C93.1563 5.7109 100.736 8.70377 106.103 14.4293C110.219 18.8209 105.686 38.8035 92.5652 56.0426C92.4332 55.9026 92.3006 55.7629 92.1672 55.6238L92.001 55.4505C95.3917 50.7754 94.7287 46.1498 94.1386 42.0488C93.896 40.3658 93.667 38.7761 93.7253 37.2829C93.7855 35.7004 94.0361 34.3429 94.2787 33.0304C94.5765 31.413 94.8797 29.7394 94.7961 27.7665C94.8585 27.5595 94.8837 27.315 94.8509 27.0248C94.6376 25.1329 92.0505 19.4708 86.7774 14.346C83.893 11.5429 79.6867 8.40602 73.9434 6.29027C76.4137 5.86277 79.7918 5.46415 83.5741 5.53427ZM29.9554 65.9168C27.3054 68.577 25.4755 68.067 24.8737 67.8998C20.9526 66.8078 16.4027 59.8883 12.3913 48.9158C8.92029 39.4215 6.89193 29.8744 6.73113 27.1973C6.22449 18.7305 8.68269 12.8299 14.0379 9.6589C22.7532 4.4989 37.082 7.5874 42.8397 9.15377C42.7571 9.22202 42.6708 9.28577 42.5891 9.35515C33.1407 17.3216 33.3649 30.9326 33.3882 31.7648C33.3873 32.0858 33.4197 32.5403 33.4637 33.1654C33.6263 35.4548 33.929 39.7155 33.1205 44.5406C32.3696 49.0245 34.0251 53.4131 37.6619 56.5815C38.0351 56.9061 38.4274 57.2149 38.8373 57.507C37.2186 58.9545 33.7004 62.1555 29.9554 65.9168ZM40.0518 54.6694C37.1207 52.1156 35.7894 48.5636 36.3989 44.9231C37.2523 39.8261 36.9374 35.3869 36.7681 33.0019C36.7443 32.6681 36.7232 32.3756 36.711 32.145C38.0913 31.1231 44.4876 28.2619 49.0492 29.1345C51.1306 29.5324 52.399 30.7159 52.9263 32.7514C55.6553 43.29 53.2874 47.6824 51.3848 51.2123C50.9927 51.9394 50.6221 52.6268 50.3059 53.3378L50.0607 53.8875C49.44 55.2773 48.8624 56.5695 48.5044 57.7965C45.3882 57.789 42.3569 56.6775 40.0518 54.669V54.6694ZM40.5302 68.8819C39.6202 68.6921 38.8018 68.3625 38.3217 68.0891C38.7228 67.9316 39.4365 67.7171 40.6744 67.5041C46.6647 66.4748 47.5899 65.748 49.6102 63.6064C50.0733 63.1151 50.5983 62.5586 51.3255 61.8806L51.3264 61.8799C52.4093 60.8674 52.9047 61.0391 53.803 61.3504C54.5311 61.6016 55.2403 62.3636 55.5278 63.2021C55.6639 63.5981 55.8166 64.3496 55.3167 64.9346C51.0964 69.8681 44.9467 69.8048 40.5302 68.8819ZM71.8804 93.2389C64.5521 94.5499 61.9574 91.428 60.2474 87.8591C59.1439 85.5551 58.6013 75.1654 58.9862 63.6915C58.9912 63.5389 58.9651 63.3915 58.9148 63.2528C58.8698 62.9788 58.8014 62.7078 58.71 62.442C58.1378 60.7725 56.7432 59.376 55.0701 58.797C54.4053 58.5671 53.1854 58.1453 51.7194 58.4584C52.032 57.3829 52.5742 56.1683 53.1621 54.8531L53.4087 54.3C53.6862 53.6764 54.0348 53.0303 54.4031 52.3463C56.3942 48.6533 59.121 43.5949 56.1615 32.1675C55.053 27.8873 51.3511 25.797 45.7394 26.2826C42.3753 26.5733 39.2973 27.7065 37.7621 28.3564C37.4319 28.4959 37.1301 28.6309 36.848 28.7621C37.2765 24.4496 38.8953 16.3901 44.9507 11.2909C48.7636 8.0809 53.8412 6.4954 60.0278 6.5809C72.2178 6.7474 80.0348 11.9704 84.4463 16.323C88.2479 20.0734 90.3064 23.8515 91.1279 25.8893C84.9498 25.3646 80.748 26.3828 78.6182 28.9253C73.9843 34.4558 81.1532 45.1898 84.5986 50.3486C85.2306 51.294 85.7758 52.1111 85.9474 52.4584C87.0694 54.7286 88.5219 56.2444 89.5824 57.3506C89.9076 57.6896 90.2229 58.0185 90.4627 58.3058C88.5916 58.7561 85.2306 59.7968 85.5369 64.9984C85.2898 67.6084 83.5332 79.8281 82.6407 84.1455C81.4626 89.8493 78.9487 91.9736 71.8804 93.2393V93.2389ZM102.469 64.0129C100.556 64.7543 97.354 65.3104 94.3124 65.43C90.9527 65.5613 89.2424 65.1158 88.8399 64.8416C88.6513 61.6001 90.0962 61.2615 91.6256 60.903C91.8658 60.8468 92.1003 60.7916 92.3267 60.7256C92.4673 60.8213 92.6213 60.9161 92.7902 61.0091C95.4905 62.4971 100.307 62.6576 107.106 61.4858L107.181 61.4734C106.264 62.1893 104.694 63.15 102.469 64.0129Z" fill="white"/>
</svg>
