<svg width="108" height="64" viewBox="0 0 108 64" fill="none" xmlns="http://www.w3.org/2000/svg">
<path d="M30.2841 23.1897C30.2841 24.5019 30.4264 25.5657 30.6744 26.3458C30.9893 27.2235 31.3685 28.0767 31.8089 28.8987C31.9862 29.1823 32.0569 29.4659 32.0569 29.7144C32.0569 30.0687 31.8444 30.4234 31.3834 30.7781L29.1497 32.2673C28.8305 32.4802 28.5114 32.5864 28.2274 32.5864C27.8731 32.5864 27.5183 32.4091 27.1636 32.0899C26.6859 31.5765 26.2585 31.0184 25.8874 30.4234C25.5327 29.821 25.1779 29.1467 24.7881 28.3315C22.0223 31.5934 18.547 33.2248 14.3632 33.2248C11.3849 33.2248 9.00895 32.3735 7.27133 30.6719C5.53413 28.9694 4.64775 26.7001 4.64775 23.8636C4.64775 20.8497 5.71149 18.4031 7.87452 16.5592C10.0371 14.7154 12.9096 13.7934 16.5618 13.7934C17.7673 13.7934 19.0084 13.8997 20.3202 14.077C21.6324 14.2544 22.9798 14.538 24.3982 14.8572V12.2687C24.3982 9.57361 23.8306 7.69461 22.7313 6.59531C21.5969 5.49602 19.6819 4.96394 16.9516 4.96394C15.7105 4.96394 14.4343 5.10616 13.1221 5.42533C11.8103 5.74407 10.5337 6.13435 9.29256 6.63087C8.72535 6.87892 8.29993 7.02073 8.05146 7.09184C7.80341 7.16295 7.62605 7.19809 7.48425 7.19809C6.98772 7.19809 6.73967 6.84337 6.73967 6.09879V4.36117C6.73967 3.79395 6.81078 3.36854 6.98772 3.12049C7.16508 2.87202 7.48425 2.62397 7.98077 2.37591C9.22187 1.73759 10.711 1.20551 12.4482 0.780098C14.1863 0.31913 16.0301 0.106634 17.9802 0.106634C22.2001 0.106634 25.285 1.06371 27.2707 2.97869C29.2208 4.89325 30.2139 7.80086 30.2139 11.7015V23.1897H30.285H30.2841ZM15.8879 28.5795C17.0583 28.5795 18.2639 28.367 19.5401 27.9412C20.8167 27.5158 21.9516 26.7357 22.9087 25.6719C23.4763 24.9985 23.9017 24.2539 24.1142 23.4026C24.3271 22.5518 24.4689 21.5232 24.4689 20.3177V18.8285C23.3936 18.5668 22.3045 18.3655 21.2066 18.2257C20.1011 18.0853 18.9879 18.0142 17.8736 18.0128C15.4976 18.0128 13.7604 18.4738 12.5904 19.4313C11.42 20.3888 10.8528 21.7361 10.8528 23.5089C10.8528 25.1754 11.2782 26.4165 12.1646 27.2677C13.0159 28.1541 14.257 28.5795 15.8879 28.5795ZM44.3612 32.4091C43.7229 32.4091 43.2975 32.3028 43.0139 32.0543C42.7303 31.8418 42.4818 31.3453 42.2693 30.6719L33.9367 3.26229C33.7234 2.55286 33.6172 2.09189 33.6172 1.84384C33.6172 1.27662 33.9008 0.957039 34.4684 0.957039H37.9432C38.6167 0.957039 39.0781 1.06371 39.3261 1.31176C39.6097 1.52467 39.8227 2.0212 40.0352 2.69466L45.9922 26.1684L51.5238 2.69466C51.7011 1.98564 51.9141 1.52467 52.1972 1.31176C52.4813 1.09926 52.9778 0.957457 53.6161 0.957457H56.4526C57.1261 0.957457 57.5875 1.06371 57.8707 1.31176C58.1547 1.52467 58.4027 2.0212 58.5445 2.69466L64.1473 26.452L70.2812 2.69466C70.4937 1.98564 70.7422 1.52467 70.9902 1.31176C71.2738 1.09926 71.7348 0.957457 72.3731 0.957457H75.6706C76.2382 0.957457 76.5574 1.24106 76.5574 1.84384C76.5574 2.0212 76.5218 2.19856 76.4863 2.41105C76.4507 2.62397 76.38 2.90757 76.2382 3.29785L67.6924 30.707C67.4799 31.4164 67.2318 31.8774 66.9478 32.0899C66.6642 32.3028 66.2032 32.4446 65.6008 32.4446H62.5514C61.8776 32.4446 61.4166 32.3384 61.1326 32.0899C60.849 31.8418 60.6009 31.3809 60.4591 30.6719L54.9626 7.80086L49.5021 30.6359C49.3252 31.3453 49.1123 31.8063 48.8287 32.0543C48.5451 32.3028 48.0485 32.4091 47.4106 32.4091H44.3608H44.3612ZM89.9255 33.3666C88.0816 33.3666 86.2377 33.1536 84.465 32.7282C82.6918 32.3028 81.3093 31.8414 80.3874 31.3102C79.8197 30.9906 79.4295 30.6363 79.2881 30.3171C79.15 30.0042 79.0775 29.6662 79.0752 29.3241V27.5158C79.0752 26.7712 79.3588 26.4165 79.8908 26.4165C80.108 26.4173 80.3236 26.4533 80.5292 26.5232C80.7417 26.5943 81.0608 26.7357 81.4156 26.8775C82.6679 27.4283 83.9754 27.8444 85.3158 28.1186C86.7047 28.4004 88.1183 28.5429 89.5356 28.544C91.7693 28.544 93.5069 28.1541 94.7125 27.374C95.918 26.5939 96.5564 25.4594 96.5564 24.0054C96.5564 23.0128 96.2372 22.1971 95.5989 21.5232C94.9605 20.8497 93.755 20.247 92.0178 19.6793L86.876 18.0839C84.2876 17.2683 82.373 16.0627 81.2026 14.4669C80.0326 12.9066 79.4299 11.1694 79.4299 9.32556C79.4299 7.83641 79.749 6.5242 80.3874 5.38935C81.0253 4.25492 81.8765 3.26229 82.9402 2.48216C84.004 1.66648 85.2095 1.06371 86.628 0.638294C88.046 0.212882 89.5352 0.0355225 91.0954 0.0355225C91.8756 0.0355225 92.6913 0.071078 93.4714 0.177326C94.2871 0.283575 95.0316 0.425379 95.7762 0.567183C96.4852 0.744542 97.1591 0.921902 97.7975 1.13482C98.4358 1.34731 98.9319 1.56023 99.2866 1.77272C99.7831 2.05675 100.137 2.34036 100.35 2.65952C100.563 2.94313 100.67 3.33299 100.67 3.82951V5.49602C100.67 6.24059 100.386 6.63087 99.8538 6.63087C99.5702 6.63087 99.1092 6.48865 98.5069 6.20504C96.4852 5.2831 94.216 4.82214 91.6986 4.82214C89.6774 4.82214 88.0816 5.1413 86.9823 5.81518C85.8834 6.48865 85.3158 7.51725 85.3158 8.97084C85.3158 9.96389 85.6705 10.8147 86.3795 11.4886C87.089 12.1621 88.4007 12.8359 90.2802 13.4387L95.3153 15.0345C97.8681 15.8502 99.712 16.9846 100.811 18.4382C101.911 19.8923 102.443 21.5588 102.443 23.4026C102.443 24.9273 102.123 26.3102 101.52 27.5158C100.882 28.7213 100.031 29.7851 98.9319 30.6363C97.8326 31.5227 96.5208 32.161 94.9961 32.622C93.4003 33.1185 91.7338 33.3666 89.9255 33.3666Z" fill="#252F3E"/>
<path d="M96.627 50.5993C84.9615 59.2159 68.0119 63.79 53.4387 63.79C33.0144 63.79 14.6117 56.2371 0.711949 43.6848C-0.387345 42.6921 0.605283 41.3448 1.91707 42.1245C16.9516 50.8478 35.4966 56.1309 54.6798 56.1309C67.6221 56.1309 81.8409 53.4362 94.9254 47.9046C96.8755 47.0178 98.542 49.1812 96.627 50.5993ZM101.485 45.0677C99.996 43.1531 91.6275 44.1457 87.8335 44.6067C86.6987 44.7489 86.5213 43.7559 87.5499 43.0113C94.216 38.3305 105.173 39.6783 106.449 41.2381C107.726 42.834 106.094 53.7905 99.8538 59.0385C98.8967 59.8542 97.9748 59.4288 98.4002 58.365C99.8182 54.8542 102.974 46.9471 101.485 45.0677Z" fill="#FF9900"/>
</svg>
