<svg width="149" height="97" viewBox="0 0 149 97" fill="none" xmlns="http://www.w3.org/2000/svg">
<path d="M73.8685 0.0273438C36.1396 0.0273438 38.4953 10.7221 38.4953 10.7221L38.5372 21.8021H74.5412V25.1287H24.2369C24.2369 25.1287 0.0941772 23.3389 0.0941772 48.2223C0.0941772 73.1064 21.1666 72.2239 21.1666 72.2239H33.7425V60.6767C33.7425 60.6767 33.0645 46.9027 54.4785 46.9027H90.1881C90.1881 46.9027 110.251 47.1146 110.251 34.2284V12.9219C110.251 12.9219 113.298 0.0273438 73.8685 0.0273438ZM54.0159 7.47846C54.8667 7.47796 55.7093 7.58713 56.4955 7.79972C57.2816 8.01231 57.996 8.32415 58.5976 8.71739C59.1992 9.11063 59.6763 9.57756 60.0015 10.0914C60.3267 10.6053 60.4937 11.1561 60.493 11.7122C60.4937 12.2684 60.3267 12.8191 60.0015 13.333C59.6763 13.8469 59.1992 14.3138 58.5976 14.7071C57.996 15.1003 57.2816 15.4121 56.4955 15.6247C55.7093 15.8373 54.8667 15.9465 54.0159 15.946C53.1651 15.9465 52.3225 15.8373 51.5363 15.6247C50.7501 15.4121 50.0358 15.1003 49.4342 14.7071C48.8326 14.3138 48.3555 13.8469 48.0303 13.333C47.705 12.8191 47.538 12.2684 47.5388 11.7122C47.538 11.1561 47.705 10.6053 48.0303 10.0914C48.3555 9.57756 48.8326 9.11063 49.4342 8.71739C50.0358 8.32415 50.7501 8.01231 51.5363 7.79972C52.3225 7.58713 53.1651 7.47796 54.0159 7.47846Z" fill="url(#paint0_linear)"/>
<path d="M74.9405 96.6676C112.669 96.6676 110.314 85.9728 110.314 85.9728L110.272 74.8932H74.2672V71.5666H124.572C124.572 71.5666 148.714 73.3564 148.714 48.4723C148.714 23.5885 127.642 24.471 127.642 24.471H115.066V36.0178C115.066 36.0178 115.744 49.7918 94.3299 49.7918H58.6203C58.6203 49.7918 38.5576 49.58 38.5576 62.4665V83.7734C38.5576 83.7734 35.5111 96.6676 74.94 96.6676H74.9405ZM94.7932 89.2172C93.9424 89.2177 93.0998 89.1085 92.3136 88.896C91.5274 88.6834 90.8131 88.3715 90.2115 87.9783C89.6098 87.585 89.1328 87.1181 88.8075 86.6042C88.4823 86.0903 88.3153 85.5396 88.3161 84.9834C88.3152 84.4273 88.4822 83.8765 88.8074 83.3625C89.1326 82.8486 89.6096 82.3816 90.2113 81.9883C90.8129 81.5951 91.5272 81.2832 92.3134 81.0706C93.0997 80.858 93.9423 80.7488 94.7932 80.7493C95.644 80.7488 96.4866 80.858 97.2727 81.0705C98.0589 81.2831 98.7733 81.595 99.3749 81.9882C99.9765 82.3815 100.454 82.8484 100.779 83.3623C101.104 83.8762 101.271 84.4269 101.27 84.9831C101.271 85.5392 101.104 86.0899 100.779 86.6038C100.454 87.1177 99.9765 87.5847 99.3749 87.9779C98.7733 88.3711 98.0589 88.683 97.2727 88.8956C96.4866 89.1082 95.644 89.2173 94.7932 89.2168V89.2172Z" fill="url(#paint1_linear)"/>
<defs>
<linearGradient id="paint0_linear" x1="14.3765" y1="8.71955" x2="58.6506" y2="75.7774" gradientUnits="userSpaceOnUse">
<stop stop-color="#387EB8"/>
<stop offset="1" stop-color="#366994"/>
</linearGradient>
<linearGradient id="paint1_linear" x1="59.5843" y1="39.3253" x2="108.03" y2="109.389" gradientUnits="userSpaceOnUse">
<stop stop-color="#FFE052"/>
<stop offset="1" stop-color="#FFC331"/>
</linearGradient>
</defs>
</svg>
