<svg width="133" height="107" viewBox="0 0 133 107" fill="none" xmlns="http://www.w3.org/2000/svg">
<path d="M116.586 21.8457L74.5964 1.79212C72.1455 0.62081 69.3472 0.0030003 66.4965 0.00378493C63.6457 0.00456955 60.848 0.623919 58.3981 1.79658L16.4089 21.8457C13.9264 23.051 11.8753 24.754 10.4561 26.7882C9.03694 28.8224 8.29833 31.1181 8.31252 33.4507V73.5534C8.31252 78.3372 11.3992 82.7644 16.4144 85.1585L58.4036 105.208C60.8534 106.379 63.6504 106.997 66.5 106.997C69.3497 106.997 72.1466 106.379 74.5964 105.208L116.586 85.1585C119.069 83.9538 121.121 82.251 122.542 80.2167C123.962 78.1825 124.701 75.8865 124.688 73.5534V33.4507C124.702 31.1175 123.963 28.8212 122.543 26.7868C121.123 24.7524 119.07 23.0498 116.586 21.8457ZM84.0671 84.4674L84.1391 87.3475C84.1447 87.6953 83.8621 88.0921 83.524 88.2303L81.4016 89.2111C81.0635 89.3493 80.7864 89.1799 80.7809 88.8322L80.7421 86.0011C78.9244 86.6075 77.0846 86.7546 75.9098 86.3756C75.6881 86.3043 75.5939 86.0412 75.6826 85.7425L76.4528 83.1389C76.5112 82.9326 76.6443 82.7449 76.8352 82.5994C76.8948 82.5536 76.962 82.5146 77.0347 82.4835C77.1566 82.4344 77.273 82.4211 77.3783 82.4567C78.6474 82.8 80.2655 82.6395 81.8227 82.0064C83.8011 81.1995 85.1256 79.5767 85.1034 77.9627C85.0868 76.5004 84.1003 75.8896 81.7064 75.8762C78.6584 75.8807 75.81 75.3992 75.7657 71.7879C75.7269 68.8142 77.6498 65.7202 80.6922 63.763L80.6534 60.8561C80.6479 60.4995 80.9194 60.1071 81.2686 59.9645L83.319 58.9123C83.657 58.7741 83.9341 58.9435 83.9396 59.3002L83.9729 62.2115C85.4858 61.7255 86.8047 61.5962 87.9961 61.8191C88.2566 61.8726 88.3674 62.158 88.2621 62.4923L87.4641 65.0693C87.403 65.2642 87.2787 65.4427 87.1039 65.5864C87.0417 65.6361 86.9708 65.6782 86.8933 65.7113C86.7974 65.7546 86.6853 65.7688 86.5775 65.7514C86.0344 65.6533 84.7376 65.4259 82.7038 66.2552C80.5703 67.1245 79.8222 68.6181 79.8388 69.7237C79.8554 71.0479 80.6978 71.4491 83.6127 71.4892C87.4919 71.5427 89.171 72.907 89.2098 76.0501C89.2486 79.1219 87.2037 82.4389 84.0671 84.4674ZM106.084 79.6212C106.084 79.8887 106.04 80.1384 105.763 80.2677L95.1449 85.4572C94.8678 85.5865 94.6461 85.475 94.6461 85.2075V83.0051C94.6461 82.7376 94.8512 82.5905 95.1283 82.4612L105.585 77.4277C105.862 77.2985 106.084 77.4099 106.084 77.6774V79.6212ZM113.377 30.3032L73.6543 50.0402C68.7001 52.3719 65.0481 54.9845 65.0481 59.7906V99.171C65.0481 102.047 66.4889 103.91 68.7056 104.45C67.9781 104.559 67.2401 104.617 66.5 104.624C64.1725 104.624 61.8838 104.115 59.8666 103.152L17.8774 83.1032C15.8383 82.1086 14.1537 80.7064 12.9874 79.033C11.8212 77.3596 11.213 75.4719 11.2219 73.5534V33.4507C11.2219 29.523 13.7711 25.8627 17.8774 23.901L59.8666 3.84742C61.8735 2.88735 64.1651 2.38061 66.5 2.38061C68.8349 2.38061 71.1265 2.88735 73.1334 3.84742L115.123 23.901C116.831 24.7335 118.293 25.8556 119.407 27.1893C120.521 28.5229 121.26 30.0359 121.573 31.6228C120.177 29.2332 117.04 28.5822 113.377 30.3032Z" fill="black"/>
</svg>
