<svg width="93" height="99" viewBox="0 0 93 99" fill="none" xmlns="http://www.w3.org/2000/svg">
<path d="M17.1527 84.1531L10.6252 6.1875H82.3747L75.8386 84.1407L46.4564 92.8125L17.1527 84.1531Z" fill="#1572B6"/>
<path d="M46.5 86.1857L70.2441 79.1784L75.8299 12.5637H46.5V86.1857Z" fill="#33A9DC"/>
<path d="M46.5 40.8096H58.3866L59.2061 31.0179H46.5V21.4551H69.0234L68.8084 24.0199L66.6025 50.3724H46.5V40.8096Z" fill="white"/>
<path d="M46.5552 65.6432L46.5145 65.6556L36.5112 62.7784L35.8719 55.1523H26.8538L28.1122 70.1663L46.5116 75.6051L46.5552 75.5927V65.6432Z" fill="#EBEBEB"/>
<path d="M57.6222 49.9672L56.5411 62.7722L46.5233 65.6494V75.5989L64.9373 70.1663L65.0739 68.5513L66.6345 49.9672H57.6222Z" fill="white"/>
<path d="M46.532 21.4551V31.0179H24.8339L24.6537 28.8678L24.2439 24.0199L24.0289 21.4551H46.532Z" fill="#EBEBEB"/>
<path d="M46.5 40.8097V50.3725H36.6216L36.4415 48.2223L36.0346 43.3744L35.8195 40.8097H46.5Z" fill="#EBEBEB"/>
</svg>
