<svg width="161" height="129" viewBox="0 0 161 129" fill="none" xmlns="http://www.w3.org/2000/svg">
<path d="M83.6194 120.937L79.8409 119.934C79.8409 119.934 80.344 104.615 73.4261 103.539C68.8979 99.3138 74.0952 -76.8236 90.648 102.938C87.5074 104.214 85.1044 106.414 83.9414 109.078C83.3181 113.011 83.2101 116.986 83.6194 120.937Z" fill="url(#paint0_linear)"/>
<path d="M85.6621 106.139C95.7224 100.071 103.427 91.8398 107.88 82.4024C112.333 72.9649 113.352 62.7086 110.818 52.8255C103.422 26.6829 85.9086 18.0882 84.0219 14.8068C82.394 12.7635 81.0046 10.6044 79.8711 8.35681L81.2648 81.1975C81.2648 81.1975 78.3768 103.458 85.6621 106.139Z" fill="url(#paint1_linear)"/>
<path d="M77.919 107.106C77.919 107.106 47.1227 90.3 48.9038 60.5695C49.0699 51.6066 51.6347 42.7767 56.425 34.6761C61.2153 26.5755 68.1195 19.3929 76.6712 13.6135C77.6706 12.9332 78.4646 12.0803 78.9935 11.1189C79.5225 10.1575 79.7726 9.11251 79.7252 8.0625C81.6421 11.3681 81.3302 57.4171 81.5314 62.8028C82.3113 83.7533 80.0774 103.152 77.919 107.106Z" fill="url(#paint2_linear)"/>
<defs>
<linearGradient id="paint0_linear" x1="58.2198" y1="65.5171" x2="99.2832" y2="82.9084" gradientUnits="userSpaceOnUse">
<stop offset="0.231" stop-color="#999875"/>
<stop offset="0.563" stop-color="#9B9977"/>
<stop offset="0.683" stop-color="#A09F7E"/>
<stop offset="0.768" stop-color="#A9A889"/>
<stop offset="0.837" stop-color="#B7B69A"/>
<stop offset="0.896" stop-color="#C9C7B0"/>
<stop offset="0.948" stop-color="#DEDDCB"/>
<stop offset="0.994" stop-color="#F8F6EB"/>
<stop offset="1" stop-color="#FBF9EF"/>
</linearGradient>
<linearGradient id="paint1_linear" x1="74.1453" y1="7.83632" x2="86.5824" y2="104.764" gradientUnits="userSpaceOnUse">
<stop stop-color="#48A547"/>
<stop offset="1" stop-color="#3F9143"/>
</linearGradient>
<linearGradient id="paint2_linear" x1="46.2547" y1="63.5124" x2="95.0345" y2="43.1237" gradientUnits="userSpaceOnUse">
<stop stop-color="#41A247"/>
<stop offset="0.352" stop-color="#4BA74B"/>
<stop offset="0.956" stop-color="#67B554"/>
<stop offset="1" stop-color="#69B655"/>
</linearGradient>
</defs>
</svg>
